<svg width="25" height="25" viewBox="0 0 25 25" fill="none" xmlns="http://www.w3.org/2000/svg">
<path d="M21.21 19.415L17.81 16.025C18.907 14.6275 19.5022 12.9017 19.5 11.125C19.5 9.54275 19.0308 7.99603 18.1518 6.68044C17.2727 5.36485 16.0233 4.33947 14.5615 3.73397C13.0997 3.12847 11.4911 2.97004 9.93928 3.27872C8.38743 3.5874 6.96197 4.34933 5.84315 5.46815C4.72433 6.58697 3.9624 8.01243 3.65372 9.56428C3.34504 11.1161 3.50347 12.7247 4.10897 14.1865C4.71447 15.6483 5.73985 16.8977 7.05544 17.7768C8.37103 18.6558 9.91775 19.125 11.5 19.125C13.2767 19.1272 15.0025 18.532 16.4 17.435L19.79 20.835C19.883 20.9287 19.9936 21.0031 20.1154 21.0539C20.2373 21.1047 20.368 21.1308 20.5 21.1308C20.632 21.1308 20.7627 21.1047 20.8846 21.0539C21.0064 21.0031 21.117 20.9287 21.21 20.835C21.3037 20.742 21.3781 20.6314 21.4289 20.5096C21.4797 20.3877 21.5058 20.257 21.5058 20.125C21.5058 19.993 21.4797 19.8623 21.4289 19.7404C21.3781 19.6186 21.3037 19.508 21.21 19.415ZM5.5 11.125C5.5 9.93832 5.8519 8.77828 6.51119 7.79158C7.17047 6.80489 8.10755 6.03585 9.2039 5.58173C10.3003 5.1276 11.5067 5.00878 12.6705 5.24029C13.8344 5.4718 14.9035 6.04325 15.7426 6.88236C16.5818 7.72148 17.1532 8.79058 17.3847 9.95446C17.6162 11.1183 17.4974 12.3247 17.0433 13.4211C16.5892 14.5175 15.8201 15.4545 14.8334 16.1138C13.8467 16.7731 12.6867 17.125 11.5 17.125C9.9087 17.125 8.38258 16.4929 7.25736 15.3676C6.13214 14.2424 5.5 12.7163 5.5 11.125Z" fill="#979797"/>
</svg>
