<svg width="24" height="25" viewBox="0 0 24 25" fill="none" xmlns="http://www.w3.org/2000/svg">
<path d="M18 21.3604H12C11.2044 21.3604 10.4413 21.0443 9.87868 20.4817C9.31607 19.9191 9 19.156 9 18.3604V12.3604C9 11.5647 9.31607 10.8016 9.87868 10.239C10.4413 9.67642 11.2044 9.36035 12 9.36035H18C18.7956 9.36035 19.5587 9.67642 20.1213 10.239C20.6839 10.8016 21 11.5647 21 12.3604V18.3604C21 19.156 20.6839 19.9191 20.1213 20.4817C19.5587 21.0443 18.7956 21.3604 18 21.3604ZM12 11.3604C11.7348 11.3604 11.4804 11.4657 11.2929 11.6532C11.1054 11.8408 11 12.0951 11 12.3604V18.3604C11 18.6256 11.1054 18.8799 11.2929 19.0675C11.4804 19.255 11.7348 19.3604 12 19.3604H18C18.2652 19.3604 18.5196 19.255 18.7071 19.0675C18.8946 18.8799 19 18.6256 19 18.3604V12.3604C19 12.0951 18.8946 11.8408 18.7071 11.6532C18.5196 11.4657 18.2652 11.3604 18 11.3604H12Z" fill="#2C3C3B"/>
<path d="M9.73 15.3604H5.67C4.96268 15.3577 4.28509 15.0756 3.78494 14.5754C3.28478 14.0753 3.00263 13.3977 3 12.6904V6.03035C3.00263 5.32303 3.28478 4.64544 3.78494 4.14529C4.28509 3.64513 4.96268 3.36299 5.67 3.36035H12.33C13.0373 3.36299 13.7149 3.64513 14.2151 4.14529C14.7152 4.64544 14.9974 5.32303 15 6.03035V9.76035H13V6.03035C13 5.85266 12.9294 5.68224 12.8038 5.55659C12.6781 5.43094 12.5077 5.36035 12.33 5.36035H5.67C5.49231 5.36035 5.32189 5.43094 5.19624 5.55659C5.07059 5.68224 5 5.85266 5 6.03035V12.6904C5 12.868 5.07059 13.0385 5.19624 13.1641C5.32189 13.2898 5.49231 13.3604 5.67 13.3604H9.73V15.3604Z" fill="#2C3C3B"/>
</svg>
