<svg width="143" height="144" viewBox="0 0 143 144" fill="none" xmlns="http://www.w3.org/2000/svg">
<g clip-path="url(#clip0)">
<mask id="mask0" mask-type="alpha" maskUnits="userSpaceOnUse" x="0" y="0" width="143" height="144">
<path d="M65.727 133.173L66.0041 133.24L66.251 133.293L66.4789 133.338L66.7052 133.371L66.9331 133.395L67.1721 133.406L67.4398 133.405L67.7488 133.393L68.105 133.369L68.5136 133.332L68.8227 133.304L69.1671 133.271L69.5466 133.232L69.9801 133.205L70.4131 133.21L70.8438 133.247L71.2685 133.332C71.4517 133.384 71.6275 133.454 71.7962 133.542L72.0438 133.688L72.3079 133.884C72.4773 134.029 72.6332 134.203 72.7752 134.407L72.9775 134.736L73.1541 135.11C73.2606 135.378 73.3445 135.684 73.405 136.027L73.4782 136.57L74.2071 143.781L72.4135 143.968L71.7078 136.955L71.6544 136.526L71.5831 136.155L71.4945 135.841L71.3841 135.574L71.2478 135.349L71.0867 135.17L70.8928 135.03L70.6694 134.928L70.4149 134.864L70.1156 134.834L69.7755 134.833L69.3945 134.864L68.3298 134.971L67.9469 135.007L67.5861 135.034L67.2341 135.045L66.8805 135.038L66.5169 135.003L66.139 134.947L65.7278 134.861L65.2834 134.747L65.727 133.173ZM79.3906 131.54L81.7377 142.341L79.9969 142.747L77.9941 133.526L75.9364 134.006L75.5921 132.428L79.3906 131.54ZM87.0538 129.301L87.3531 129.317L87.6468 129.365L87.9348 129.446L88.2352 129.57C88.4319 129.669 88.6218 129.797 88.8059 129.956L89.0777 130.217L89.3366 130.532C89.5023 130.763 89.6545 131.037 89.7949 131.354L89.9967 131.862L91.9065 137.256L93.6917 136.592L94.2262 138.109L85.0807 141.521L84.5441 140.009L90.2164 137.888L88.3932 132.735L88.2408 132.333L88.0851 131.989L87.9285 131.702L87.7573 131.467L87.5729 131.283L87.375 131.148L87.1536 131.06L86.9111 131.016L86.6461 131.022L86.3523 131.065L86.0238 131.15L85.6595 131.274L85.3109 131.402L84.9478 131.534L84.6053 131.65L84.2713 131.746L83.9293 131.823L83.5709 131.882L83.1983 131.919L82.7885 131.937L82.3343 131.938L82.3369 131.538L82.3427 131.118L82.3514 130.696L82.3554 130.295L82.6421 130.294L82.8983 130.289L83.1244 130.28L83.4352 130.247L83.7476 130.195L84.0759 130.113L84.4406 129.996L84.7236 129.898L85.0518 129.778L85.4293 129.637L85.8395 129.502C86.1159 129.422 86.3975 129.363 86.682 129.323C86.8088 129.307 86.9313 129.301 87.0538 129.301ZM52.0669 130.931L52.4193 131.336C53.1951 132.324 53.6378 133.619 53.5803 135.075L53.5246 135.709L53.4107 136.334C53.081 137.751 52.3129 138.873 51.3033 139.606L50.8564 139.896L50.6113 139.546L50.9994 139.099C51.7255 138.218 52.1572 137.399 52.3961 136.196L52.5 135.561L52.5724 134.833C52.6418 133.681 52.4558 132.806 52.025 131.811L51.7373 131.196L52.0669 130.931ZM58.766 133.579L62.9046 133.649L62.8454 137.439L62.8362 137.781L62.8159 138.088L62.7932 138.372L62.7609 138.65L62.7126 138.933L62.6469 139.221L62.5713 139.534L62.48 139.896L60.7434 139.522L60.8208 139.226L60.8871 138.971L60.9391 138.742L60.98 138.524L61.0085 138.311L61.0307 138.088L61.0466 137.841L61.0561 137.551L61.092 135.214L58.7406 135.175L58.766 133.579ZM46.0164 131.337L46.1268 131.537L46.2213 131.723L46.3034 131.903L46.3713 132.079L46.4294 132.26L46.4812 132.446L46.5224 132.637L46.5572 132.848L47.0051 136.141L47.3885 135.92L47.7339 135.652L48.0458 135.336L48.3276 134.975L48.5779 134.579L48.8029 134.137L49.001 133.66L49.1832 133.139L48.3339 132.685L48.7248 131.89L50.2163 132.674L50.0937 133.484L49.8446 134.144C49.7256 134.424 49.5955 134.684 49.4549 134.926L49.236 135.274L48.8711 135.752C48.6997 135.951 48.5159 136.132 48.3193 136.297L48.0149 136.533L47.5231 136.842C47.2937 136.968 47.0501 137.08 46.7935 137.176L46.3988 137.308L45.7676 137.469C45.4759 137.53 45.1692 137.579 44.8469 137.614L44.3517 137.656L44.2671 136.729L44.7137 136.686L45.184 136.638L45.6657 136.562L46.1537 136.451L45.7143 133.679L45.6551 133.342L45.6023 133.056L45.5466 132.811L45.4861 132.598L45.4206 132.398L45.3488 132.22L45.2712 132.045L45.1777 131.862L46.0164 131.337ZM36.3301 128.285L36.4478 128.382L36.5561 128.467L36.6583 128.543L36.7589 128.613L36.8656 128.68L36.9786 128.741L37.1109 128.805L37.2638 128.871L37.4466 128.946L37.6547 129.03L37.896 129.119L38.1786 129.223L38.5039 129.364L38.8103 129.542L38.9992 129.683L39.1608 129.848L39.2962 130.039L39.4007 130.253L39.4705 130.495L39.5074 130.766L39.4987 131.066L39.4373 131.402L39.3215 131.771L37.9927 135.413L37.0758 135.075L38.3687 131.528L38.4412 131.312L38.4935 131.116L38.5251 130.944L38.5333 130.788L38.519 130.648L38.4807 130.525L38.3785 130.357L38.2209 130.213L38.0846 130.131L37.9184 130.051L37.7244 129.976L37.1793 129.772L36.9847 129.697L36.8012 129.622L36.6274 129.546L36.4568 129.457L36.2881 129.353L36.1146 129.236L35.9342 129.099L35.7428 128.936L36.3301 128.285ZM35.8019 126.449L35.9413 126.855L35.4684 127.179C34.5727 127.827 33.9669 128.501 33.4361 129.6L33.1759 130.187L32.9239 130.871C32.5665 131.967 32.5156 132.868 32.6594 133.958L32.7682 134.638L32.3985 134.803L32.1762 134.31C31.6453 132.961 31.6157 131.348 32.2654 129.752C32.9985 127.953 34.321 126.829 35.8019 126.449ZM44.056 130.251L44.6719 130.489L43.8909 132.081L43.8887 133.351L43.6793 133.435C43.5523 133.474 43.4481 133.483 43.3518 133.468L43.2114 133.43L42.9957 133.313C42.5634 132.986 42.6185 132.301 42.9426 131.764C43.1818 131.37 43.7533 130.64 44.056 130.251ZM42.0705 129.503L42.6865 129.738L41.9054 131.33V132.608L41.6957 132.692C41.5683 132.732 41.4634 132.741 41.3667 132.726L41.226 132.687L41.0102 132.569C40.5779 132.239 40.6328 131.553 40.9551 131.021C41.1985 130.619 41.7679 129.9 42.0705 129.503ZM105.66 118.504L106.253 119.776L106.893 121.921L107.012 122.427L107.078 122.924L107.092 123.41L107.064 123.878L107.01 124.313L106.929 124.714L107.284 124.753L107.648 124.782L108.008 124.815L108.366 124.849L109.336 124.929L110.026 125.954L110.157 126.164L110.267 126.366L110.355 126.567L110.434 126.777L110.502 127.008L110.565 127.258L110.624 127.538L110.686 127.864L104.079 132.561L103.194 131.241L108.824 127.241L108.793 127.115L108.752 127.004L108.698 126.898L108.624 126.777L108.576 126.707L108.512 126.614L108.436 126.505L108.347 126.397L107.657 126.401L106.42 126.4L105.873 126.397L105.204 126.39L104.601 126.375L104.06 126.355L103.581 126.334L103.154 126.311L102.782 126.284L102.453 126.249L102.16 126.215L101.901 126.177L101.571 126.116L101.297 126.043L101.06 125.962L100.841 125.882L100.63 125.788L100.403 125.687L100.239 125.601L100.055 125.491L99.852 125.361L99.624 125.204L99.3668 125.013L99.0809 124.79L98.7619 124.527L98.4001 124.219L97.9951 123.866L99.1 122.49L99.4594 122.827L99.7954 123.127L100.11 123.386L100.41 123.612L100.699 123.81L100.978 123.983L101.383 124.192L101.783 124.354L102.185 124.475L102.607 124.565L103.054 124.63L103.532 124.673L104.061 124.701L104.648 124.727L105.311 124.76L105.363 124.543L105.408 124.3L105.449 124.029L105.474 123.738L105.477 123.427L105.455 123.091L105.398 122.736L105.305 122.359L104.77 120.603L103.45 121.144L102.93 119.755L103.617 119.438L104.295 119.127C104.743 118.921 105.199 118.717 105.66 118.504ZM95.6881 124.823L97.3782 128.127L97.529 128.428L97.6528 128.7L97.7637 128.958L97.862 129.216L97.9502 129.483L98.0289 129.763L98.1068 130.072L98.1958 130.425L96.5036 130.931L96.4378 130.637L96.3187 130.161L96.2543 129.952L96.1801 129.755L96.0979 129.553L95.996 129.33L95.8719 129.08L94.8283 127.039L92.7621 128.122L92.0502 126.729L95.6881 124.823ZM61.5705 0.967773C67.3674 0.967773 73.106 1.77274 78.6223 3.3611C78.8726 3.43232 79.0712 3.61792 79.1596 3.86178C79.2481 4.10565 79.2157 4.37541 79.0712 4.59122C75.8619 9.37141 70.842 12.6323 65.2135 13.6164V41.7882C67.6544 42.2112 69.9701 43.055 72.1132 44.3002L90.2224 22.7192C86.5449 18.3469 84.7968 12.6237 85.4097 6.89823C85.4399 6.64141 85.5867 6.41265 85.809 6.28317C86.0356 6.15368 86.3075 6.14073 86.5427 6.24432C97.1351 10.949 106.167 18.5325 112.663 28.1684C112.806 28.3842 112.84 28.6562 112.752 28.8979C112.663 29.1417 112.462 29.3295 112.216 29.3986C110.306 29.951 108.332 30.2294 106.342 30.2294C102.628 30.2294 99.0019 29.2561 95.8078 27.4045L77.6986 48.9876C79.2956 50.8867 80.5301 53.0189 81.3739 55.3432L109.115 50.4529C109.106 44.7405 111.444 39.2287 115.596 35.2405C115.784 35.0614 116.043 34.9816 116.297 35.0269C116.554 35.0722 116.77 35.2362 116.885 35.4671C121.037 43.9333 123.139 53.0384 123.139 62.5361C123.139 64.7093 123.027 66.8998 122.8 69.0493C122.772 69.3061 122.623 69.5349 122.401 69.6643C122.174 69.796 121.902 69.8111 121.665 69.7053C116.405 67.3768 112.329 62.998 110.382 57.6329L82.6343 62.5232V62.5361C82.6343 65.0395 82.2005 67.4847 81.3437 69.8111L105.664 83.8517C109.352 79.4427 114.722 76.7192 120.506 76.3566C120.765 76.3393 121.013 76.4472 121.177 76.6458C121.343 76.8443 121.404 77.1119 121.343 77.3601C118.557 88.6275 112.635 98.8548 104.216 106.948C104.028 107.122 103.769 107.204 103.515 107.157C103.258 107.114 103.042 106.952 102.928 106.719C100.372 101.539 100.049 95.5486 102.017 90.1619L77.677 76.1106C74.4721 79.9131 70.0888 82.436 65.2135 83.2841V111.344H96.643C96.9948 111.344 97.3077 111.575 97.4135 111.911C97.5214 112.246 97.4005 112.613 97.1113 112.815C86.683 120.198 74.3901 124.107 61.5705 124.107C48.7467 124.107 36.4559 120.198 26.0276 112.815C25.7384 112.613 25.6175 112.246 25.7233 111.911C25.829 111.575 26.142 111.344 26.4959 111.344H57.9254V83.2841C53.0263 82.4316 48.6323 79.8937 45.4252 76.0653L21.0228 90.1533C22.9845 95.514 22.6738 101.485 20.1444 106.65C20.03 106.883 19.812 107.047 19.5574 107.092C19.3027 107.138 19.0394 107.06 18.8538 106.879C10.4715 98.7987 4.57101 88.5909 1.7956 77.3558C1.73301 77.1055 1.7956 76.84 1.95962 76.6415C2.12796 76.4429 2.37831 76.335 2.63513 76.3523C8.38019 76.7407 13.7152 79.4599 17.3776 83.8387L41.7758 69.7528C40.9319 67.4458 40.5068 65.0223 40.5068 62.5361V62.5232L12.757 57.6329C10.8124 62.998 6.7335 67.3768 1.47403 69.7053C1.23663 69.8111 0.962545 69.796 0.740253 69.6643C0.515803 69.5349 0.366889 69.3061 0.338833 69.0493C0.114383 66.8998 0 64.7093 0 62.5361C0 53.0405 2.10422 43.9333 6.25439 35.4671C6.36661 35.2362 6.58459 35.0722 6.84141 35.0269C7.09607 34.9816 7.35505 35.0614 7.54282 35.2405C11.693 39.2287 14.0324 44.7405 14.0238 50.4529L41.7671 55.3432C42.6088 53.0189 43.8411 50.8867 45.4403 48.9876L27.3311 27.4045C24.137 29.2561 20.5113 30.2294 16.7971 30.2294C14.8094 30.2294 12.8325 29.951 10.9247 29.3986C10.6765 29.3295 10.4758 29.1417 10.3873 28.8979C10.2988 28.6562 10.3333 28.3842 10.4779 28.1684C16.9719 18.5325 26.006 10.949 36.594 6.24432C36.8314 6.14073 37.1033 6.15368 37.3278 6.28317C37.5522 6.41265 37.7011 6.64141 37.7292 6.89823C38.3421 12.6237 36.594 18.3469 32.9165 22.7192L51.0257 44.3002C53.1688 43.055 55.4845 42.2112 57.9254 41.7882V13.6164C52.2969 12.6323 47.2748 9.37141 44.0677 4.59122C43.9231 4.37541 43.8908 4.10565 43.9793 3.86178C44.0677 3.61792 44.2685 3.43232 44.5166 3.3611C50.0351 1.77274 55.7715 0.967773 61.5705 0.967773ZM118.487 105.672L119.647 106.612L120.27 107.378C120.661 107.889 121.001 108.402 121.291 108.917L121.688 109.692L122.01 110.478C122.201 111.005 122.344 111.539 122.439 112.081L122.544 112.9L122.579 113.738C122.579 114.303 122.534 114.878 122.443 115.464L122.271 116.351L122.031 117.257C121.849 117.87 121.624 118.503 121.354 119.152L120.917 120.137L119.373 119.44L119.721 118.644L120.074 117.803L120.303 117.218L120.509 116.614L120.691 115.991L115.887 114.222L115.486 114.079L115.124 113.954L114.801 113.848L114.363 113.718L113.964 113.623L113.593 113.559L113.244 113.516L112.891 113.492L112.517 113.482L112.469 111.587L112.883 111.577L113.265 111.587L113.626 111.611L113.973 111.652L114.31 111.717L114.647 111.799L114.993 111.903L115.361 112.032L120.987 114.261L121.001 113.691L120.968 113.13L120.885 112.576L120.757 112.033L120.586 111.495L120.37 110.964L120.118 110.438L119.824 109.918L119.491 109.401L119.115 108.883L118.703 108.365L118.257 107.849L116.755 108.873L115.859 107.499L118.487 105.672ZM123.665 96.0971L125.007 96.9458L123.891 98.7496L131.702 103.716L130.741 105.266L122.934 100.304L121.589 102.481L121.382 102.811L121.179 103.115L120.972 103.404L120.75 103.677L120.505 103.941L120.232 104.204L119.921 104.476L119.563 104.753L119.325 104.414L118.853 103.771L118.614 103.429L118.837 103.25L119.034 103.087L119.206 102.943L119.437 102.718L119.662 102.466L119.893 102.157L120.144 101.786L120.334 101.491C120.425 101.347 120.527 101.186 120.638 101.008L120.811 100.727L123.665 96.0971ZM126.344 90.5989L129.796 92.1835L130.105 92.3311L130.381 92.4656L130.632 92.6075L130.876 92.7543L131.113 92.9098L131.349 93.0864L131.607 93.2834L131.898 93.5097L130.836 94.977L130.597 94.7855L130.388 94.6232L130.2 94.4805L130.016 94.3541L129.832 94.2396L129.64 94.1283L129.419 94.0146L129.158 93.8896L127.027 92.9128L126.017 95.0791L124.561 94.4105L126.344 90.5989ZM129.764 80.4144L130.081 80.4337L130.348 80.4513L130.571 80.4773L130.766 80.5099L130.937 80.5468L131.098 80.5902L131.255 80.6363L131.429 80.6922L133.559 81.3912L134.123 81.6093C134.487 81.7732 134.827 81.974 135.143 82.2117L135.6 82.5959L136.028 83.0333C136.307 83.343 136.574 83.6888 136.829 84.0702L137.201 84.6688L137.66 85.4746L138.122 86.2772L138.583 87.0833L139.035 87.8943L138.664 88.1141L138.306 88.3306L137.948 88.5461L137.577 88.7647L135.828 85.7172L135.601 85.3349L135.359 84.951L135.092 84.5746L134.788 84.2195L134.442 83.895L134.045 83.5965L133.751 83.4186L133.424 83.2629L133.069 83.1298L130.787 82.3766L128.839 88.4869L124.561 87.0803L125.115 85.3504L127.899 86.2664L129.764 80.4144ZM132.293 62.4895L133.914 62.6002L135.523 63.145L136.042 63.3409L136.538 63.5661L137.009 63.8152L137.446 64.0805L137.845 64.3638L138.204 64.6601L138.519 64.9618L138.777 65.27L138.781 65.257L138.91 65.4328L139.674 64.8622L140.444 64.2737L141.21 63.6844L141.971 63.1016L143 64.4734L136.058 69.6807L136.251 69.7974L136.474 69.9173L136.741 70.0375L137.059 70.1496L137.434 70.2624L137.871 70.3623L138.198 70.4232L138.559 70.4764L138.952 70.5229L139.46 70.575L139.975 70.6271L140.473 70.6713L140.944 70.7139L142.256 70.8376L142.134 72.6718L141.524 72.6186L140.923 72.5589L140.324 72.5012L139.719 72.4417L139.526 72.4246L139.328 72.4027L139.136 72.3826L138.944 72.3658L138.37 72.2968L137.784 72.1921L137.2 72.047L136.63 71.8709L136.083 71.6478L135.561 71.3825L135.232 71.1782L134.925 70.9508L134.64 70.6987L134.319 70.8965L134.043 71.0504L133.795 71.1738L133.574 71.2761L133.369 71.358L133.17 71.4237L132.979 71.4842L132.773 71.5431L131.78 71.8296L131.302 70.1105L131.839 69.9585L132.34 69.8145L132.821 69.6395L133.142 69.5008L133.48 69.3346L133.838 69.1381L134.218 68.9126L134.629 68.6494L135.069 68.3501L135.55 68.0081C135.776 67.8441 136.017 67.6643 136.275 67.4691L136.673 67.165L137.571 66.4725L137.406 66.2294L137.24 66.0365L137.023 65.8517L136.761 65.6751L136.461 65.5001L136.128 65.33L135.762 65.168L135.372 65.0144L134.966 64.8641L133.415 64.3171L133.035 65.7454L131.619 65.3221L132.293 62.4895ZM141.773 53.7289L142.059 53.7332L142.387 53.7441L142.801 59.9347L141.232 60.0432L140.93 55.5652L140.527 55.6112L140.143 55.6856L139.778 55.791L139.247 55.9784L138.72 56.1838L138.251 56.3622L137.75 56.53L137.214 56.6896L136.622 56.8258C136.346 56.8784 136.052 56.9206 135.74 56.9527L135.259 56.9935L133.39 57.1237L133.544 59.3833L131.97 59.494L131.702 55.4046L135.057 55.1767L135.704 55.1034L136.366 54.9748L137.033 54.7976L137.685 54.5798L138.298 54.3551L138.94 54.1369L139.597 53.9571L140.251 53.8309L140.478 53.7986L140.666 53.781L140.851 53.7669L141.052 53.7527L141.316 53.7403L141.61 53.731C141.663 53.731 141.716 53.7289 141.773 53.7289ZM131.252 42.7282L131.672 44.838L140.659 42.9409L141.018 44.7556L132.033 46.6527L132.54 49.2031L132.613 49.5906L132.674 49.9585L132.718 50.3167L132.743 50.6748L132.746 51.0427L132.729 51.4302L132.683 51.8461L132.614 52.3028L132.214 52.2236L131.826 52.1573L131.439 52.0865L131.036 52.0076L131.076 51.7154L131.107 51.4561L131.131 51.2305L131.149 50.903L131.136 50.5576L131.114 50.3051L131.078 50.0251L131.028 49.7176L130.964 49.3681C130.932 49.1983 130.895 49.0092 130.855 48.8009L130.791 48.4738L129.718 43.0538L131.252 42.7282ZM133.781 29.6931L133.888 29.698L134.457 29.7643C134.704 29.8097 134.943 29.876 135.174 29.9628L135.515 30.1083L135.997 30.3826C136.202 30.5184 136.394 30.6728 136.575 30.8459L136.838 31.1198L137.193 31.5737C137.338 31.7859 137.467 32.0119 137.578 32.2504L137.731 32.6175L137.908 33.1964C137.971 33.4534 138.012 33.7102 138.031 33.9669L138.044 34.3518L138.001 34.9175C137.967 35.1637 137.91 35.403 137.832 35.635L137.699 35.9776L137.448 36.4694C137.32 36.68 137.173 36.8803 137.006 37.0715L136.74 37.3516L136.41 37.6397C136.177 37.821 135.92 37.9805 135.638 38.1184L135.198 38.3088L133.567 38.934L132.986 39.1241L132.4 39.251L131.807 39.3138L131.212 39.3273L130.621 39.3055L130.033 39.2465L130.101 39.7189L130.138 40.206L130.154 40.6767L130.157 41.1002L129.87 41.0992L129.583 41.0981L129.29 41.0962L128.993 41.0894L128.512 41.0764L128.489 40.6371L128.438 40.1929L128.357 39.7235L128.239 39.2053L128.138 38.8269L128.018 38.4166L127.88 37.9746L127.716 37.4888L127.526 36.951L127.31 36.3596L127.086 35.7605L126.948 35.3438L126.844 34.9183L126.771 34.4842L126.744 34.0506L126.782 33.6242L126.881 33.2079L127.002 32.9002C127.098 32.6984 127.226 32.5033 127.384 32.3151L127.641 32.0379L127.956 31.7721C128.186 31.6011 128.457 31.4425 128.768 31.2959L129.266 31.085L132.101 30.0019C132.457 29.8644 132.809 29.7723 133.156 29.7261L133.673 29.6915L133.781 29.6931ZM133.907 31.53L133.559 31.5336L133.211 31.5879L132.866 31.6928L130.022 32.7846L129.624 32.9498L129.284 33.1165L129 33.286L128.77 33.4633L128.588 33.6565L128.455 33.8656L128.372 34.0952L128.333 34.3465L128.339 34.621L128.385 34.9278L128.475 35.2713L128.605 35.652L129.357 37.675C129.692 37.7503 130.035 37.7985 130.382 37.8223L130.907 37.84H130.964L131.517 37.8006C131.764 37.7667 132.015 37.7113 132.269 37.6352L132.652 37.5057L134.727 36.7048L135.056 36.5553L135.355 36.3702L135.623 36.1469L135.86 35.895L136.058 35.6203L136.216 35.3221L136.337 35.0067L136.417 34.6773L136.455 34.3344L136.448 33.9858L136.391 33.6347L136.284 33.2817L136.139 32.9584L135.955 32.6615L135.733 32.3917L135.478 32.1537L135.201 31.9518L134.902 31.7861L134.586 31.659C134.37 31.5879 134.144 31.5445 133.907 31.53ZM129.61 16.8567L130.508 18.4586L124.498 22.0119L124.138 22.2366L123.833 22.4542L123.585 22.6631L123.388 22.8746L123.241 23.0933L123.146 23.3207L123.1 23.5596L123.101 23.812L123.148 24.0783L123.244 24.3692L123.383 24.691L123.566 25.0442L124.563 26.8176L124.755 27.1654L124.933 27.5035L125.093 27.8427L125.237 28.1916L125.364 28.5584L125.476 28.9513L125.57 29.3751L125.651 29.8413L124.069 30.0996L124.011 29.7981L123.953 29.5309L123.891 29.2728L123.813 29.0164L123.715 28.7519L123.594 28.4694L123.498 28.265L123.384 28.035L123.253 27.7814L123.107 27.5022L122.94 27.1901L122.753 26.8458L122.54 26.4622L122.298 26.0313L122.028 25.5521L121.827 25.1601L121.656 24.7526L121.515 24.3301L121.421 23.9034L121.391 23.471L121.424 23.0342L121.494 22.7087C121.556 22.4917 121.651 22.2748 121.776 22.0584L121.986 21.734L122.25 21.4142C122.447 21.2038 122.688 20.9991 122.972 20.8006L123.431 20.5076L129.61 16.8567ZM133.016 22.9713L133.882 24.5775L131.169 26.2532L130.879 26.4306L130.62 26.5853L130.394 26.7178L130.092 26.8857L129.815 27.026L129.551 27.1459L129.289 27.2496L129.013 27.3456L128.698 27.4514L128.57 27.0388C128.518 26.8717 128.473 26.7262 128.433 26.6019L128.379 26.4312L128.309 26.2191L128.251 26.0465L128.208 25.9125L128.174 25.808L128.149 25.7406L128.129 25.7084L128.391 25.614L128.619 25.5279L128.812 25.4523L129.063 25.3419L129.291 25.2331L129.514 25.1156L129.745 24.9834L129.916 24.8814L130.113 24.762L130.337 24.6253L133.016 22.9713Z" fill="white"/>
</mask>
<g mask="url(#mask0)">
<path d="M65.727 133.173L66.0041 133.24L66.251 133.293L66.4789 133.338L66.7052 133.371L66.9331 133.395L67.1721 133.406L67.4398 133.405L67.7488 133.393L68.105 133.369L68.5136 133.332L68.8227 133.304L69.1671 133.271L69.5466 133.232L69.9801 133.205L70.4131 133.21L70.8438 133.247L71.2685 133.332C71.4517 133.384 71.6275 133.454 71.7962 133.542L72.0438 133.688L72.3079 133.884C72.4773 134.029 72.6332 134.203 72.7752 134.407L72.9775 134.736L73.1541 135.11C73.2606 135.378 73.3445 135.684 73.405 136.027L73.4782 136.57L74.2071 143.781L72.4135 143.968L71.7078 136.955L71.6544 136.526L71.5831 136.155L71.4945 135.841L71.3841 135.574L71.2478 135.349L71.0867 135.17L70.8928 135.03L70.6694 134.928L70.4149 134.864L70.1156 134.834L69.7755 134.833L69.3945 134.864L68.3298 134.971L67.9469 135.007L67.5861 135.034L67.2341 135.045L66.8805 135.038L66.5169 135.003L66.139 134.947L65.7278 134.861L65.2834 134.747L65.727 133.173ZM79.3906 131.54L81.7377 142.341L79.9969 142.747L77.9941 133.526L75.9364 134.006L75.5921 132.428L79.3906 131.54ZM87.0538 129.301L87.3531 129.317L87.6468 129.365L87.9348 129.446L88.2352 129.57C88.4319 129.669 88.6218 129.797 88.8059 129.956L89.0777 130.217L89.3366 130.532C89.5023 130.763 89.6545 131.037 89.7949 131.354L89.9967 131.862L91.9065 137.256L93.6917 136.592L94.2262 138.109L85.0807 141.521L84.5441 140.009L90.2164 137.888L88.3932 132.735L88.2408 132.333L88.0851 131.989L87.9285 131.702L87.7573 131.467L87.5729 131.283L87.375 131.148L87.1536 131.06L86.9111 131.016L86.6461 131.022L86.3523 131.065L86.0238 131.15L85.6595 131.274L85.3109 131.402L84.9478 131.534L84.6053 131.65L84.2713 131.746L83.9293 131.823L83.5709 131.882L83.1983 131.919L82.7885 131.937L82.3343 131.938L82.3369 131.538L82.3427 131.118L82.3514 130.696L82.3554 130.295L82.6421 130.294L82.8983 130.289L83.1244 130.28L83.4352 130.247L83.7476 130.195L84.0759 130.113L84.4406 129.996L84.7236 129.898L85.0518 129.778L85.4293 129.637L85.8395 129.502C86.1159 129.422 86.3975 129.363 86.682 129.323C86.8088 129.307 86.9313 129.301 87.0538 129.301ZM52.0669 130.931L52.4193 131.336C53.1951 132.324 53.6378 133.619 53.5803 135.075L53.5246 135.709L53.4107 136.334C53.081 137.751 52.3129 138.873 51.3033 139.606L50.8564 139.896L50.6113 139.546L50.9994 139.099C51.7255 138.218 52.1572 137.399 52.3961 136.196L52.5 135.561L52.5724 134.833C52.6418 133.681 52.4558 132.806 52.025 131.811L51.7373 131.196L52.0669 130.931ZM58.766 133.579L62.9046 133.649L62.8454 137.439L62.8362 137.781L62.8159 138.088L62.7932 138.372L62.7609 138.65L62.7126 138.933L62.6469 139.221L62.5713 139.534L62.48 139.896L60.7434 139.522L60.8208 139.226L60.8871 138.971L60.9391 138.742L60.98 138.524L61.0085 138.311L61.0307 138.088L61.0466 137.841L61.0561 137.551L61.092 135.214L58.7406 135.175L58.766 133.579ZM46.0164 131.337L46.1268 131.537L46.2213 131.723L46.3034 131.903L46.3713 132.079L46.4294 132.26L46.4812 132.446L46.5224 132.637L46.5572 132.848L47.0051 136.141L47.3885 135.92L47.7339 135.652L48.0458 135.336L48.3276 134.975L48.5779 134.579L48.8029 134.137L49.001 133.66L49.1832 133.139L48.3339 132.685L48.7248 131.89L50.2163 132.674L50.0937 133.484L49.8446 134.144C49.7256 134.424 49.5955 134.684 49.4549 134.926L49.236 135.274L48.8711 135.752C48.6997 135.951 48.5159 136.132 48.3193 136.297L48.0149 136.533L47.5231 136.842C47.2937 136.968 47.0501 137.08 46.7935 137.176L46.3988 137.308L45.7676 137.469C45.4759 137.53 45.1692 137.579 44.8469 137.614L44.3517 137.656L44.2671 136.729L44.7137 136.686L45.184 136.638L45.6657 136.562L46.1537 136.451L45.7143 133.679L45.6551 133.342L45.6023 133.056L45.5466 132.811L45.4861 132.598L45.4206 132.398L45.3488 132.22L45.2712 132.045L45.1777 131.862L46.0164 131.337ZM36.3301 128.285L36.4478 128.382L36.5561 128.467L36.6583 128.543L36.7589 128.613L36.8656 128.68L36.9786 128.741L37.1109 128.805L37.2638 128.871L37.4466 128.946L37.6547 129.03L37.896 129.119L38.1786 129.223L38.5039 129.364L38.8103 129.542L38.9992 129.683L39.1608 129.848L39.2962 130.039L39.4007 130.253L39.4705 130.495L39.5074 130.766L39.4987 131.066L39.4373 131.402L39.3215 131.771L37.9927 135.413L37.0758 135.075L38.3687 131.528L38.4412 131.312L38.4935 131.116L38.5251 130.944L38.5333 130.788L38.519 130.648L38.4807 130.525L38.3785 130.357L38.2209 130.213L38.0846 130.131L37.9184 130.051L37.7244 129.976L37.1793 129.772L36.9847 129.697L36.8012 129.622L36.6274 129.546L36.4568 129.457L36.2881 129.353L36.1146 129.236L35.9342 129.099L35.7428 128.936L36.3301 128.285ZM35.8019 126.449L35.9413 126.855L35.4684 127.179C34.5727 127.827 33.9669 128.501 33.4361 129.6L33.1759 130.187L32.9239 130.871C32.5665 131.967 32.5156 132.868 32.6594 133.958L32.7682 134.638L32.3985 134.803L32.1762 134.31C31.6453 132.961 31.6157 131.348 32.2654 129.752C32.9985 127.953 34.321 126.829 35.8019 126.449ZM44.056 130.251L44.6719 130.489L43.8909 132.081L43.8887 133.351L43.6793 133.435C43.5523 133.474 43.4481 133.483 43.3518 133.468L43.2114 133.43L42.9957 133.313C42.5634 132.986 42.6185 132.301 42.9426 131.764C43.1818 131.37 43.7533 130.64 44.056 130.251ZM42.0705 129.503L42.6865 129.738L41.9054 131.33V132.608L41.6957 132.692C41.5683 132.732 41.4634 132.741 41.3667 132.726L41.226 132.687L41.0102 132.569C40.5779 132.239 40.6328 131.553 40.9551 131.021C41.1985 130.619 41.7679 129.9 42.0705 129.503ZM105.66 118.504L106.253 119.776L106.893 121.921L107.012 122.427L107.078 122.924L107.092 123.41L107.064 123.878L107.01 124.313L106.929 124.714L107.284 124.753L107.648 124.782L108.008 124.815L108.366 124.849L109.336 124.929L110.026 125.954L110.157 126.164L110.267 126.366L110.355 126.567L110.434 126.777L110.502 127.008L110.565 127.258L110.624 127.538L110.686 127.864L104.079 132.561L103.194 131.241L108.824 127.241L108.793 127.115L108.752 127.004L108.698 126.898L108.624 126.777L108.576 126.707L108.512 126.614L108.436 126.505L108.347 126.397L107.657 126.401L106.42 126.4L105.873 126.397L105.204 126.39L104.601 126.375L104.06 126.355L103.581 126.334L103.154 126.311L102.782 126.284L102.453 126.249L102.16 126.215L101.901 126.177L101.571 126.116L101.297 126.043L101.06 125.962L100.841 125.882L100.63 125.788L100.403 125.687L100.239 125.601L100.055 125.491L99.852 125.361L99.624 125.204L99.3668 125.013L99.0809 124.79L98.7619 124.527L98.4001 124.219L97.9951 123.866L99.1 122.49L99.4594 122.827L99.7954 123.127L100.11 123.386L100.41 123.612L100.699 123.81L100.978 123.983L101.383 124.192L101.783 124.354L102.185 124.475L102.607 124.565L103.054 124.63L103.532 124.673L104.061 124.701L104.648 124.727L105.311 124.76L105.363 124.543L105.408 124.3L105.449 124.029L105.474 123.738L105.477 123.427L105.455 123.091L105.398 122.736L105.305 122.359L104.77 120.603L103.45 121.144L102.93 119.755L103.617 119.438L104.295 119.127C104.743 118.921 105.199 118.717 105.66 118.504ZM95.6881 124.823L97.3782 128.127L97.529 128.428L97.6528 128.7L97.7637 128.958L97.862 129.216L97.9502 129.483L98.0289 129.763L98.1068 130.072L98.1958 130.425L96.5036 130.931L96.4378 130.637L96.3187 130.161L96.2543 129.952L96.1801 129.755L96.0979 129.553L95.996 129.33L95.8719 129.08L94.8283 127.039L92.7621 128.122L92.0502 126.729L95.6881 124.823ZM61.5705 0.967773C67.3674 0.967773 73.106 1.77274 78.6223 3.3611C78.8726 3.43232 79.0712 3.61792 79.1596 3.86178C79.2481 4.10565 79.2157 4.37541 79.0712 4.59122C75.8619 9.37141 70.842 12.6323 65.2135 13.6164V41.7882C67.6544 42.2112 69.9701 43.055 72.1132 44.3002L90.2224 22.7192C86.5449 18.3469 84.7968 12.6237 85.4097 6.89823C85.4399 6.64141 85.5867 6.41265 85.809 6.28317C86.0356 6.15368 86.3075 6.14073 86.5427 6.24432C97.1351 10.949 106.167 18.5325 112.663 28.1684C112.806 28.3842 112.84 28.6562 112.752 28.8979C112.663 29.1417 112.462 29.3295 112.216 29.3986C110.306 29.951 108.332 30.2294 106.342 30.2294C102.628 30.2294 99.0019 29.2561 95.8078 27.4045L77.6986 48.9876C79.2956 50.8867 80.5301 53.0189 81.3739 55.3432L109.115 50.4529C109.106 44.7405 111.444 39.2287 115.596 35.2405C115.784 35.0614 116.043 34.9816 116.297 35.0269C116.554 35.0722 116.77 35.2362 116.885 35.4671C121.037 43.9333 123.139 53.0384 123.139 62.5361C123.139 64.7093 123.027 66.8998 122.8 69.0493C122.772 69.3061 122.623 69.5349 122.401 69.6643C122.174 69.796 121.902 69.8111 121.665 69.7053C116.405 67.3768 112.329 62.998 110.382 57.6329L82.6343 62.5232V62.5361C82.6343 65.0395 82.2005 67.4847 81.3437 69.8111L105.664 83.8517C109.352 79.4427 114.722 76.7192 120.506 76.3566C120.765 76.3393 121.013 76.4472 121.177 76.6458C121.343 76.8443 121.404 77.1119 121.343 77.3601C118.557 88.6275 112.635 98.8548 104.216 106.948C104.028 107.122 103.769 107.204 103.515 107.157C103.258 107.114 103.042 106.952 102.928 106.719C100.372 101.539 100.049 95.5486 102.017 90.1619L77.677 76.1106C74.4721 79.9131 70.0888 82.436 65.2135 83.2841V111.344H96.643C96.9948 111.344 97.3077 111.575 97.4135 111.911C97.5214 112.246 97.4005 112.613 97.1113 112.815C86.683 120.198 74.3901 124.107 61.5705 124.107C48.7467 124.107 36.4559 120.198 26.0276 112.815C25.7384 112.613 25.6175 112.246 25.7233 111.911C25.829 111.575 26.142 111.344 26.4959 111.344H57.9254V83.2841C53.0263 82.4316 48.6323 79.8937 45.4252 76.0653L21.0228 90.1533C22.9845 95.514 22.6738 101.485 20.1444 106.65C20.03 106.883 19.812 107.047 19.5574 107.092C19.3027 107.138 19.0394 107.06 18.8538 106.879C10.4715 98.7987 4.57101 88.5909 1.7956 77.3558C1.73301 77.1055 1.7956 76.84 1.95962 76.6415C2.12796 76.4429 2.37831 76.335 2.63513 76.3523C8.38019 76.7407 13.7152 79.4599 17.3776 83.8387L41.7758 69.7528C40.9319 67.4458 40.5068 65.0223 40.5068 62.5361V62.5232L12.757 57.6329C10.8124 62.998 6.7335 67.3768 1.47403 69.7053C1.23663 69.8111 0.962545 69.796 0.740253 69.6643C0.515803 69.5349 0.366889 69.3061 0.338833 69.0493C0.114383 66.8998 0 64.7093 0 62.5361C0 53.0405 2.10422 43.9333 6.25439 35.4671C6.36661 35.2362 6.58459 35.0722 6.84141 35.0269C7.09607 34.9816 7.35505 35.0614 7.54282 35.2405C11.693 39.2287 14.0324 44.7405 14.0238 50.4529L41.7671 55.3432C42.6088 53.0189 43.8411 50.8867 45.4403 48.9876L27.3311 27.4045C24.137 29.2561 20.5113 30.2294 16.7971 30.2294C14.8094 30.2294 12.8325 29.951 10.9247 29.3986C10.6765 29.3295 10.4758 29.1417 10.3873 28.8979C10.2988 28.6562 10.3333 28.3842 10.4779 28.1684C16.9719 18.5325 26.006 10.949 36.594 6.24432C36.8314 6.14073 37.1033 6.15368 37.3278 6.28317C37.5522 6.41265 37.7011 6.64141 37.7292 6.89823C38.3421 12.6237 36.594 18.3469 32.9165 22.7192L51.0257 44.3002C53.1688 43.055 55.4845 42.2112 57.9254 41.7882V13.6164C52.2969 12.6323 47.2748 9.37141 44.0677 4.59122C43.9231 4.37541 43.8908 4.10565 43.9793 3.86178C44.0677 3.61792 44.2685 3.43232 44.5166 3.3611C50.0351 1.77274 55.7715 0.967773 61.5705 0.967773ZM118.487 105.672L119.647 106.612L120.27 107.378C120.661 107.889 121.001 108.402 121.291 108.917L121.688 109.692L122.01 110.478C122.201 111.005 122.344 111.539 122.439 112.081L122.544 112.9L122.579 113.738C122.579 114.303 122.534 114.878 122.443 115.464L122.271 116.351L122.031 117.257C121.849 117.87 121.624 118.503 121.354 119.152L120.917 120.137L119.373 119.44L119.721 118.644L120.074 117.803L120.303 117.218L120.509 116.614L120.691 115.991L115.887 114.222L115.486 114.079L115.124 113.954L114.801 113.848L114.363 113.718L113.964 113.623L113.593 113.559L113.244 113.516L112.891 113.492L112.517 113.482L112.469 111.587L112.883 111.577L113.265 111.587L113.626 111.611L113.973 111.652L114.31 111.717L114.647 111.799L114.993 111.903L115.361 112.032L120.987 114.261L121.001 113.691L120.968 113.13L120.885 112.576L120.757 112.033L120.586 111.495L120.37 110.964L120.118 110.438L119.824 109.918L119.491 109.401L119.115 108.883L118.703 108.365L118.257 107.849L116.755 108.873L115.859 107.499L118.487 105.672ZM123.665 96.0971L125.007 96.9458L123.891 98.7496L131.702 103.716L130.741 105.266L122.934 100.304L121.589 102.481L121.382 102.811L121.179 103.115L120.972 103.404L120.75 103.677L120.505 103.941L120.232 104.204L119.921 104.476L119.563 104.753L119.325 104.414L118.853 103.771L118.614 103.429L118.837 103.25L119.034 103.087L119.206 102.943L119.437 102.718L119.662 102.466L119.893 102.157L120.144 101.786L120.334 101.491C120.425 101.347 120.527 101.186 120.638 101.008L120.811 100.727L123.665 96.0971ZM126.344 90.5989L129.796 92.1835L130.105 92.3311L130.381 92.4656L130.632 92.6075L130.876 92.7543L131.113 92.9098L131.349 93.0864L131.607 93.2834L131.898 93.5097L130.836 94.977L130.597 94.7855L130.388 94.6232L130.2 94.4805L130.016 94.3541L129.832 94.2396L129.64 94.1283L129.419 94.0146L129.158 93.8896L127.027 92.9128L126.017 95.0791L124.561 94.4105L126.344 90.5989ZM129.764 80.4144L130.081 80.4337L130.348 80.4513L130.571 80.4773L130.766 80.5099L130.937 80.5468L131.098 80.5902L131.255 80.6363L131.429 80.6922L133.559 81.3912L134.123 81.6093C134.487 81.7732 134.827 81.974 135.143 82.2117L135.6 82.5959L136.028 83.0333C136.307 83.343 136.574 83.6888 136.829 84.0702L137.201 84.6688L137.66 85.4746L138.122 86.2772L138.583 87.0833L139.035 87.8943L138.664 88.1141L138.306 88.3306L137.948 88.5461L137.577 88.7647L135.828 85.7172L135.601 85.3349L135.359 84.951L135.092 84.5746L134.788 84.2195L134.442 83.895L134.045 83.5965L133.751 83.4186L133.424 83.2629L133.069 83.1298L130.787 82.3766L128.839 88.4869L124.561 87.0803L125.115 85.3504L127.899 86.2664L129.764 80.4144ZM132.293 62.4895L133.914 62.6002L135.523 63.145L136.042 63.3409L136.538 63.5661L137.009 63.8152L137.446 64.0805L137.845 64.3638L138.204 64.6601L138.519 64.9618L138.777 65.27L138.781 65.257L138.91 65.4328L139.674 64.8622L140.444 64.2737L141.21 63.6844L141.971 63.1016L143 64.4734L136.058 69.6807L136.251 69.7974L136.474 69.9173L136.741 70.0375L137.059 70.1496L137.434 70.2624L137.871 70.3623L138.198 70.4232L138.559 70.4764L138.952 70.5229L139.46 70.575L139.975 70.6271L140.473 70.6713L140.944 70.7139L142.256 70.8376L142.134 72.6718L141.524 72.6186L140.923 72.5589L140.324 72.5012L139.719 72.4417L139.526 72.4246L139.328 72.4027L139.136 72.3826L138.944 72.3658L138.37 72.2968L137.784 72.1921L137.2 72.047L136.63 71.8709L136.083 71.6478L135.561 71.3825L135.232 71.1782L134.925 70.9508L134.64 70.6987L134.319 70.8965L134.043 71.0504L133.795 71.1738L133.574 71.2761L133.369 71.358L133.17 71.4237L132.979 71.4842L132.773 71.5431L131.78 71.8296L131.302 70.1105L131.839 69.9585L132.34 69.8145L132.821 69.6395L133.142 69.5008L133.48 69.3346L133.838 69.1381L134.218 68.9126L134.629 68.6494L135.069 68.3501L135.55 68.0081C135.776 67.8441 136.017 67.6643 136.275 67.4691L136.673 67.165L137.571 66.4725L137.406 66.2294L137.24 66.0365L137.023 65.8517L136.761 65.6751L136.461 65.5001L136.128 65.33L135.762 65.168L135.372 65.0144L134.966 64.8641L133.415 64.3171L133.035 65.7454L131.619 65.3221L132.293 62.4895ZM141.773 53.7289L142.059 53.7332L142.387 53.7441L142.801 59.9347L141.232 60.0432L140.93 55.5652L140.527 55.6112L140.143 55.6856L139.778 55.791L139.247 55.9784L138.72 56.1838L138.251 56.3622L137.75 56.53L137.214 56.6896L136.622 56.8258C136.346 56.8784 136.052 56.9206 135.74 56.9527L135.259 56.9935L133.39 57.1237L133.544 59.3833L131.97 59.494L131.702 55.4046L135.057 55.1767L135.704 55.1034L136.366 54.9748L137.033 54.7976L137.685 54.5798L138.298 54.3551L138.94 54.1369L139.597 53.9571L140.251 53.8309L140.478 53.7986L140.666 53.781L140.851 53.7669L141.052 53.7527L141.316 53.7403L141.61 53.731C141.663 53.731 141.716 53.7289 141.773 53.7289ZM131.252 42.7282L131.672 44.838L140.659 42.9409L141.018 44.7556L132.033 46.6527L132.54 49.2031L132.613 49.5906L132.674 49.9585L132.718 50.3167L132.743 50.6748L132.746 51.0427L132.729 51.4302L132.683 51.8461L132.614 52.3028L132.214 52.2236L131.826 52.1573L131.439 52.0865L131.036 52.0076L131.076 51.7154L131.107 51.4561L131.131 51.2305L131.149 50.903L131.136 50.5576L131.114 50.3051L131.078 50.0251L131.028 49.7176L130.964 49.3681C130.932 49.1983 130.895 49.0092 130.855 48.8009L130.791 48.4738L129.718 43.0538L131.252 42.7282ZM133.781 29.6931L133.888 29.698L134.457 29.7643C134.704 29.8097 134.943 29.876 135.174 29.9628L135.515 30.1083L135.997 30.3826C136.202 30.5184 136.394 30.6728 136.575 30.8459L136.838 31.1198L137.193 31.5737C137.338 31.7859 137.467 32.0119 137.578 32.2504L137.731 32.6175L137.908 33.1964C137.971 33.4534 138.012 33.7102 138.031 33.9669L138.044 34.3518L138.001 34.9175C137.967 35.1637 137.91 35.403 137.832 35.635L137.699 35.9776L137.448 36.4694C137.32 36.68 137.173 36.8803 137.006 37.0715L136.74 37.3516L136.41 37.6397C136.177 37.821 135.92 37.9805 135.638 38.1184L135.198 38.3088L133.567 38.934L132.986 39.1241L132.4 39.251L131.807 39.3138L131.212 39.3273L130.621 39.3055L130.033 39.2465L130.101 39.7189L130.138 40.206L130.154 40.6767L130.157 41.1002L129.87 41.0992L129.583 41.0981L129.29 41.0962L128.993 41.0894L128.512 41.0764L128.489 40.6371L128.438 40.1929L128.357 39.7235L128.239 39.2053L128.138 38.8269L128.018 38.4166L127.88 37.9746L127.716 37.4888L127.526 36.951L127.31 36.3596L127.086 35.7605L126.948 35.3438L126.844 34.9183L126.771 34.4842L126.744 34.0506L126.782 33.6242L126.881 33.2079L127.002 32.9002C127.098 32.6984 127.226 32.5033 127.384 32.3151L127.641 32.0379L127.956 31.7721C128.186 31.6011 128.457 31.4425 128.768 31.2959L129.266 31.085L132.101 30.0019C132.457 29.8644 132.809 29.7723 133.156 29.7261L133.673 29.6915L133.781 29.6931ZM133.907 31.53L133.559 31.5336L133.211 31.5879L132.866 31.6928L130.022 32.7846L129.624 32.9498L129.284 33.1165L129 33.286L128.77 33.4633L128.588 33.6565L128.455 33.8656L128.372 34.0952L128.333 34.3465L128.339 34.621L128.385 34.9278L128.475 35.2713L128.605 35.652L129.357 37.675C129.692 37.7503 130.035 37.7985 130.382 37.8223L130.907 37.84H130.964L131.517 37.8006C131.764 37.7667 132.015 37.7113 132.269 37.6352L132.652 37.5057L134.727 36.7048L135.056 36.5553L135.355 36.3702L135.623 36.1469L135.86 35.895L136.058 35.6203L136.216 35.3221L136.337 35.0067L136.417 34.6773L136.455 34.3344L136.448 33.9858L136.391 33.6347L136.284 33.2817L136.139 32.9584L135.955 32.6615L135.733 32.3917L135.478 32.1537L135.201 31.9518L134.902 31.7861L134.586 31.659C134.37 31.5879 134.144 31.5445 133.907 31.53ZM129.61 16.8567L130.508 18.4586L124.498 22.0119L124.138 22.2366L123.833 22.4542L123.585 22.6631L123.388 22.8746L123.241 23.0933L123.146 23.3207L123.1 23.5596L123.101 23.812L123.148 24.0783L123.244 24.3692L123.383 24.691L123.566 25.0442L124.563 26.8176L124.755 27.1654L124.933 27.5035L125.093 27.8427L125.237 28.1916L125.364 28.5584L125.476 28.9513L125.57 29.3751L125.651 29.8413L124.069 30.0996L124.011 29.7981L123.953 29.5309L123.891 29.2728L123.813 29.0164L123.715 28.7519L123.594 28.4694L123.498 28.265L123.384 28.035L123.253 27.7814L123.107 27.5022L122.94 27.1901L122.753 26.8458L122.54 26.4622L122.298 26.0313L122.028 25.5521L121.827 25.1601L121.656 24.7526L121.515 24.3301L121.421 23.9034L121.391 23.471L121.424 23.0342L121.494 22.7087C121.556 22.4917 121.651 22.2748 121.776 22.0584L121.986 21.734L122.25 21.4142C122.447 21.2038 122.688 20.9991 122.972 20.8006L123.431 20.5076L129.61 16.8567ZM133.016 22.9713L133.882 24.5775L131.169 26.2532L130.879 26.4306L130.62 26.5853L130.394 26.7178L130.092 26.8857L129.815 27.026L129.551 27.1459L129.289 27.2496L129.013 27.3456L128.698 27.4514L128.57 27.0388C128.518 26.8717 128.473 26.7262 128.433 26.6019L128.379 26.4312L128.309 26.2191L128.251 26.0465L128.208 25.9125L128.174 25.808L128.149 25.7406L128.129 25.7084L128.391 25.614L128.619 25.5279L128.812 25.4523L129.063 25.3419L129.291 25.2331L129.514 25.1156L129.745 24.9834L129.916 24.8814L130.113 24.762L130.337 24.6253L133.016 22.9713Z" fill="#0C99DF"/>
</g>
</g>
<defs>
<clipPath id="clip0">
<rect width="143" height="143" fill="white" transform="translate(0 0.967773)"/>
</clipPath>
</defs>
</svg>
