<svg width="64" height="73" viewBox="0 0 64 73" fill="none" xmlns="http://www.w3.org/2000/svg">
<g filter="url(#filter0_dii)">
<path d="M-1.00293 4.13342H27.1531C42.617 4.13342 55.1531 16.6695 55.1531 32.1334C55.1531 47.5974 42.617 60.1334 27.1531 60.1334H-1.00293V4.13342Z" fill="#E5E5E5"/>
<path d="M19.2482 31.3872C19.0607 31.5748 18.9553 31.8291 18.9553 32.0943C18.9553 32.3596 19.0607 32.6139 19.2482 32.8014L24.8697 38.4937C25.0572 38.6812 25.3116 38.7866 25.5768 38.7866C25.842 38.7866 26.0964 38.6812 26.2839 38.4937C26.4714 38.3061 26.5768 38.0518 26.5768 37.7866C26.5768 37.5213 26.4714 37.267 26.2839 37.0794L22.3524 33.1479L34.0621 33.1338C34.1941 33.1343 34.3249 33.1087 34.447 33.0585C34.569 33.0082 34.6799 32.9343 34.7733 32.8409C34.8666 32.7476 34.9406 32.6367 34.9908 32.5146C35.0411 32.3925 35.0667 32.2617 35.0662 32.1297C35.0667 31.9977 35.0411 31.8669 34.9908 31.7448C34.9406 31.6227 34.8666 31.5118 34.7733 31.4185C34.6799 31.3251 34.569 31.2512 34.447 31.2009C34.3249 31.1507 34.1941 31.1251 34.0621 31.1256L22.3383 31.1256L26.2839 27.18C26.4714 26.9924 26.5768 26.7381 26.5768 26.4728C26.5768 26.2076 26.4714 25.9533 26.2839 25.7657C26.0964 25.5782 25.842 25.4728 25.5768 25.4728C25.3116 25.4728 25.0572 25.5782 24.8697 25.7657L19.2482 31.3872Z" fill="black"/>
</g>
<defs>
<filter id="filter0_dii" x="-9.00293" y="0.133423" width="72.156" height="72" filterUnits="userSpaceOnUse" color-interpolation-filters="sRGB">
<feFlood flood-opacity="0" result="BackgroundImageFix"/>
<feColorMatrix in="SourceAlpha" type="matrix" values="0 0 0 0 0 0 0 0 0 0 0 0 0 0 0 0 0 0 127 0"/>
<feOffset dy="4"/>
<feGaussianBlur stdDeviation="4"/>
<feColorMatrix type="matrix" values="0 0 0 0 0 0 0 0 0 0 0 0 0 0 0 0 0 0 0.12 0"/>
<feBlend mode="normal" in2="BackgroundImageFix" result="effect1_dropShadow"/>
<feBlend mode="normal" in="SourceGraphic" in2="effect1_dropShadow" result="shape"/>
<feColorMatrix in="SourceAlpha" type="matrix" values="0 0 0 0 0 0 0 0 0 0 0 0 0 0 0 0 0 0 127 0" result="hardAlpha"/>
<feOffset dy="-1"/>
<feComposite in2="hardAlpha" operator="arithmetic" k2="-1" k3="1"/>
<feColorMatrix type="matrix" values="0 0 0 0 0 0 0 0 0 0 0 0 0 0 0 0 0 0 0.25 0"/>
<feBlend mode="normal" in2="shape" result="effect2_innerShadow"/>
<feColorMatrix in="SourceAlpha" type="matrix" values="0 0 0 0 0 0 0 0 0 0 0 0 0 0 0 0 0 0 127 0" result="hardAlpha"/>
<feOffset dy="1"/>
<feComposite in2="hardAlpha" operator="arithmetic" k2="-1" k3="1"/>
<feColorMatrix type="matrix" values="0 0 0 0 1 0 0 0 0 1 0 0 0 0 1 0 0 0 0.25 0"/>
<feBlend mode="normal" in2="effect2_innerShadow" result="effect3_innerShadow"/>
</filter>
</defs>
</svg>
