<svg width="346" height="345" viewBox="0 0 346 345" fill="none" xmlns="http://www.w3.org/2000/svg">
<rect width="346" height="345" fill="url(#paint0_radial_2397_88804)"/>
<path d="M205.335 120.992L206.995 121.249L211.648 109.39L211.656 109.342L207.007 108.622L207.503 105.42L205.843 105.163L205.127 109.788L209.467 110.46L205.335 120.992ZM210.785 121.836L212.279 122.067C215.03 122.493 216.439 121.084 217.18 116.293C217.834 112.072 217.13 110.19 214.189 109.734L212.79 109.518L212.569 110.941L213.945 111.154C215.605 111.411 216.121 112.316 215.544 116.04C214.989 119.621 214.302 120.923 212.476 120.641L211.005 120.413L210.785 121.836ZM223.021 123.731L224.681 123.988L226.591 111.655L219.927 110.623L219.706 112.046L224.711 112.821L223.021 123.731ZM218.135 122.974L219.772 123.228L221.002 115.282L219.366 115.029L218.135 122.974ZM230.148 124.834L231.809 125.092L232.644 121.578C232.937 120.312 233.323 119.23 234.088 118.839C234.747 121.175 235.179 123.403 235.651 125.687L237.548 125.98C236.759 122.92 236.523 121.936 235.983 119.934C237.48 119.364 238.061 118.434 238.684 115.98L239.292 113.622L237.632 113.365L237.082 115.659C236.558 117.788 236.273 118.376 235.532 118.771C234.975 116.718 234.459 114.719 233.813 112.773L231.892 112.476C232.32 113.635 233.009 115.612 233.597 117.621C232.316 118.054 231.581 119.033 230.947 121.558L230.148 124.834ZM239.876 126.341L241.536 126.598L243.446 114.265L240.671 113.835L240.451 115.258L241.565 115.431L239.876 126.341ZM247.117 127.462L248.777 127.719L250.018 119.703C250.518 116.477 249.809 115.25 247.01 114.817L245.184 114.534L244.964 115.957L246.79 116.24C248.45 116.497 248.729 117.05 248.358 119.446L247.117 127.462ZM254.325 128.578L255.985 128.835L260.401 116.939L260.409 116.892L252.677 115.694L252.457 117.117L258.244 118.013L254.325 128.578ZM250.545 131.029L252.182 131.282L253.871 120.372L252.235 120.119L250.545 131.029ZM261.2 129.643L262.86 129.9L267.514 118.04L267.521 117.993L262.873 117.273L263.368 114.071L261.708 113.814L260.992 118.439L265.332 119.111L261.2 129.643ZM270.623 131.102L277.358 132.145L278.6 124.129C279.099 120.903 278.367 119.672 275.592 119.243L272.532 118.769L270.623 131.102ZM272.503 129.936L273.972 120.449L275.372 120.666C277.032 120.923 277.31 121.476 276.939 123.871L275.918 130.465L272.503 129.936ZM280.367 126.904L282.027 127.161L283.074 120.401L280.299 119.972L280.079 121.395L281.193 121.567L280.367 126.904ZM282.887 133.001L289.266 133.989L289.487 132.566L288.396 132.397L290.085 121.487L284.915 120.686L284.695 122.109L288.205 122.653L286.736 132.14L283.107 131.578L282.887 133.001ZM291.971 128.701L293.631 128.958L294.678 122.198L291.903 121.769L291.683 123.192L292.797 123.364L291.971 128.701ZM296.302 129.371L297.962 129.628L299.009 122.869L296.234 122.439L296.014 123.862L297.129 124.035L296.302 129.371ZM299.32 135.546L300.98 135.803L302.669 124.893L304.092 125.113C305.753 125.37 306.031 125.923 305.66 128.319L304.419 136.335L306.055 136.589L307.297 128.572C307.796 125.347 307.111 124.124 304.313 123.69L301.229 123.213L299.32 135.546ZM311.329 137.406L312.99 137.663L313.825 134.149C314.118 132.883 314.504 131.801 315.269 131.41C315.927 133.746 316.36 135.974 316.832 138.258L318.729 138.551C317.94 135.491 317.704 134.507 317.164 132.505C318.661 131.935 319.242 131.005 319.865 128.551L320.473 126.193L318.813 125.936L318.263 128.23C317.739 130.359 317.454 130.947 316.713 131.342C316.156 129.289 315.64 127.29 314.994 125.344L313.073 125.047C313.501 126.206 314.19 128.183 314.778 130.192C313.496 130.625 312.762 131.604 312.128 134.129L311.329 137.406ZM321.628 139L323.288 139.257L327.942 127.398L327.949 127.35L323.301 126.631L323.797 123.429L322.136 123.172L321.42 127.797L325.761 128.469L321.628 139ZM214.014 146.622L214.868 146.754C216.813 147.055 217.477 145.75 217.818 143.544L218.953 136.215L222.084 136.7L220.394 147.61L222.055 147.867L223.964 135.534L216.066 134.311L215.846 135.734L217.293 135.958L216.114 143.571C215.864 145.184 215.563 145.405 215.041 145.324L214.235 145.199L214.014 146.622ZM225.016 148.326L226.676 148.583L228.586 136.25L225.811 135.82L225.591 137.243L226.706 137.416L225.016 148.326ZM228.818 148.914L230.454 149.168L233.282 138.434L233.994 138.544C235.654 138.801 235.933 139.355 235.562 141.75L234.541 148.343L232.572 148.039L232.352 149.462L235.957 150.02L237.198 142.003C237.698 138.778 236.989 137.551 234.214 137.121L230.514 136.548L230.294 137.971L231.622 138.177L228.818 148.914ZM238.988 144.782L240.648 145.039L241.694 138.28L238.92 137.85L238.699 139.273L239.814 139.446L238.988 144.782ZM245.088 151.434L246.749 151.691L247.99 143.675C248.489 140.449 247.781 139.222 244.982 138.789L243.156 138.506L242.936 139.929L244.762 140.212C246.422 140.469 246.701 141.022 246.33 143.418L245.088 151.434ZM248.478 151.959L250.802 152.319C253.862 152.793 255.475 150.371 256.534 144.949L257.384 140.709L255.724 140.452L254.921 144.699C254.11 148.994 253.213 150.555 252.024 150.857L252.143 139.898L250.483 139.641L250.382 150.797L248.698 150.536L248.478 151.959ZM262.09 154.067L263.75 154.324L268.404 142.464L268.411 142.417L263.763 141.697L264.259 138.495L262.598 138.238L261.882 142.863L266.222 143.535L262.09 154.067ZM267.54 154.911L269.035 155.142C271.786 155.568 273.194 154.159 273.936 149.368C274.59 145.146 273.885 143.265 270.944 142.809L269.545 142.592L269.325 144.015L270.7 144.228C272.361 144.486 272.876 145.391 272.299 149.115C271.745 152.696 271.058 153.998 269.231 153.715L267.761 153.488L267.54 154.911ZM278.318 156.58L279.836 156.815L280.133 154.894L278.615 154.659L278.318 156.58ZM281.954 157.143L283.472 157.378L283.77 155.457L282.252 155.222L281.954 157.143ZM285.22 157.648L286.738 157.883L287.035 155.962L285.517 155.727L285.22 157.648ZM289.173 158.261L290.834 158.518L292.743 146.185L289.969 145.755L289.748 147.178L290.863 147.351L289.173 158.261ZM294.645 153.401L296.305 153.658L297.351 146.898L294.577 146.469L294.356 147.892L295.471 148.064L294.645 153.401ZM298.065 159.638L300.437 160.005C304.848 160.688 306.201 158.226 307.896 150.887L308.418 148.612L306.758 148.355L306.26 150.633C304.641 157.79 303.409 159.008 300.657 158.582L299.827 158.453L300.183 154.744L300.349 154.77C302.365 155.082 303.331 154.017 303.989 151.18L304.695 148.035L303.106 147.789L302.424 150.938C301.993 152.936 301.37 153.665 300.54 153.536L300.303 153.5L300.876 147.444L299.216 147.187L298.065 159.638ZM307.957 161.169L309.451 161.401C312.203 161.827 313.611 160.418 314.353 155.627C315.006 151.405 314.302 149.523 311.361 149.068L309.962 148.851L309.741 150.274L311.117 150.487C312.777 150.744 313.293 151.65 312.716 155.373C312.162 158.955 311.474 160.257 309.648 159.974L308.178 159.746L307.957 161.169ZM314.928 162.249L317.253 162.609C320.312 163.083 321.926 160.661 322.984 155.239L323.835 150.999L322.174 150.742L321.371 154.989C320.56 159.284 319.663 160.845 318.475 161.147L318.593 150.188L316.933 149.931L316.833 161.087L315.149 160.826L314.928 162.249ZM181.95 168.979L183.61 169.236L185.979 153.938L183.204 153.508L182.984 154.931L184.099 155.104L181.95 168.979ZM186.092 166.584L187.752 166.841L188.588 163.328C188.881 162.062 189.267 160.98 190.032 160.589C190.69 162.925 191.122 165.153 191.595 167.436L193.492 167.73C192.703 164.669 192.467 163.686 191.927 161.684C193.424 161.114 194.005 160.184 194.628 157.73L195.236 155.372L193.576 155.114L193.026 157.409C192.502 159.538 192.217 160.126 191.476 160.521C190.919 158.467 190.403 156.469 189.757 154.523L187.836 154.226C188.264 155.385 188.953 157.362 189.541 159.371C188.259 159.804 187.525 160.783 186.891 163.308L186.092 166.584ZM194.731 167.922L196.225 168.153C198.976 168.579 200.384 167.17 201.126 162.379C201.78 158.158 201.076 156.276 198.135 155.82L196.736 155.604L196.515 157.027L197.891 157.24C199.551 157.497 200.066 158.402 199.49 162.126C198.935 165.707 198.248 167.01 196.422 166.727L194.951 166.499L194.731 167.922ZM208.227 173.048L209.864 173.301L212.233 158.004L206.849 157.17L206.628 158.593L210.376 159.173L208.227 173.048ZM213.971 170.901L215.631 171.158L220.284 159.299L220.292 159.251L215.643 158.532L216.139 155.33L214.479 155.073L213.763 159.698L218.103 160.37L213.971 170.901ZM223.891 172.438L225.552 172.695L227.461 160.362L224.686 159.932L224.466 161.355L225.581 161.528L223.891 172.438ZM231.132 173.559L232.792 173.816L234.034 165.799C234.533 162.574 233.824 161.347 231.026 160.914L229.2 160.631L228.979 162.054L230.805 162.337C232.466 162.594 232.744 163.147 232.373 165.542L231.132 173.559ZM234.688 174.109L236.324 174.363L239.152 163.629L239.864 163.739C241.524 163.996 241.802 164.55 241.431 166.945L240.41 173.538L238.442 173.234L238.222 174.657L241.827 175.215L243.068 167.198C243.567 163.973 242.859 162.746 240.084 162.316L236.384 161.743L236.164 163.166L237.492 163.372L234.688 174.109ZM244.503 175.629L246.875 175.997C251.286 176.68 252.639 174.218 254.334 166.879L254.856 164.604L253.196 164.347L252.697 166.625C251.079 173.782 249.846 175 247.095 174.574L246.265 174.445L246.621 170.736L246.787 170.762C248.803 171.074 249.769 170.009 250.427 167.172L251.132 164.027L249.543 163.781L248.861 166.93C248.431 168.927 247.808 169.657 246.978 169.528L246.74 169.491L247.314 163.436L245.654 163.179L244.503 175.629ZM256.207 171.734L257.867 171.992L258.913 165.232L256.139 164.802L255.918 166.225L257.033 166.398L256.207 171.734ZM262.698 178.447L269.434 179.49L270.675 171.474C271.175 168.248 270.442 167.017 267.668 166.588L264.608 166.114L262.698 178.447ZM264.579 177.281L266.048 167.794L267.447 168.011C269.107 168.268 269.386 168.821 269.015 171.216L267.994 177.81L264.579 177.281ZM272.443 174.249L274.103 174.506L275.15 167.746L272.375 167.317L272.154 168.74L273.269 168.912L272.443 174.249ZM275.769 180.471L277.69 180.768C280.749 181.242 282.228 178.751 283.331 173.822L284.367 169.174L277.014 168.035L275.769 180.471ZM277.53 179.287L278.525 169.726L282.391 170.325L281.671 173.565C280.745 177.817 279.736 179.628 277.91 179.345L277.53 179.287ZM285.714 176.304L287.374 176.561L288.421 169.801L285.646 169.372L285.426 170.795L286.541 170.967L285.714 176.304ZM289.087 182.533L290.582 182.765C293.736 183.253 296.063 180.772 296.783 176.124C297.352 172.447 296.379 170.888 294.861 170.653C294.292 170.565 293.748 170.626 293.274 170.869L293.05 172.315C293.576 172.057 293.973 171.997 294.258 172.041C295.136 172.177 295.508 173.376 295.097 176.032C294.528 179.709 292.984 181.68 291.134 181.393L290.849 181.349L291.946 170.347L290.286 170.09L289.087 182.533ZM300.454 184.294L302.114 184.551L303.356 176.534C303.855 173.309 303.147 172.082 300.348 171.648L298.522 171.366L298.301 172.789L300.128 173.071C301.788 173.328 302.066 173.882 301.696 176.277L300.454 184.294ZM303.868 184.822L305.362 185.054C308.113 185.48 309.521 184.07 310.263 179.28C310.917 175.058 310.213 173.176 307.272 172.72L305.872 172.504L305.652 173.927L307.028 174.14C308.688 174.397 309.203 175.303 308.627 179.026C308.072 182.607 307.385 183.91 305.558 183.627L304.088 183.399L303.868 184.822ZM316.104 186.717L317.764 186.974L319.674 174.641L313.009 173.609L312.789 175.032L317.793 175.807L316.104 186.717ZM311.218 185.96L312.855 186.214L314.085 178.268L312.448 178.015L311.218 185.96Z" fill="#360627"/>
<path d="M288.639 40.3453C288.737 40.0871 288.607 39.7984 288.349 39.7003L284.143 38.1015C283.884 38.0034 283.596 38.1331 283.498 38.3913C283.399 38.6494 283.529 38.9382 283.787 39.0363L287.526 40.4574L286.105 44.1964C286.007 44.4546 286.137 44.7433 286.395 44.8414C286.653 44.9396 286.942 44.8098 287.04 44.5517L288.639 40.3453ZM267.381 108.673C267.773 108.363 267.773 108.363 267.773 108.363C267.773 108.363 267.773 108.363 267.773 108.363C267.773 108.363 267.772 108.362 267.772 108.362C267.771 108.36 267.769 108.358 267.766 108.354C267.761 108.347 267.752 108.336 267.741 108.322C267.719 108.293 267.685 108.249 267.641 108.189C267.553 108.071 267.423 107.893 267.258 107.658C266.929 107.189 266.462 106.492 265.916 105.589C264.825 103.783 263.42 101.155 262.171 97.8764C259.673 91.3182 257.805 82.1717 260.298 71.7827L259.326 71.5493C256.773 82.1868 258.689 91.5438 261.237 98.2324C262.511 101.577 263.944 104.259 265.06 106.106C265.619 107.03 266.098 107.746 266.439 108.232C266.61 108.475 266.746 108.661 266.84 108.787C266.887 108.85 266.923 108.898 266.948 108.931C266.961 108.947 266.97 108.96 266.977 108.969C266.98 108.973 266.983 108.976 266.985 108.979C266.986 108.98 266.987 108.981 266.987 108.981C266.987 108.982 266.988 108.982 266.988 108.982C266.988 108.983 266.988 108.983 267.381 108.673ZM260.298 71.7827C262.786 61.4201 269.783 53.6322 276.2 48.42C279.404 45.817 282.453 43.8655 284.7 42.5652C285.824 41.9152 286.746 41.4285 287.385 41.1048C287.705 40.943 287.955 40.8221 288.123 40.7419C288.207 40.7018 288.271 40.6719 288.314 40.6522C288.335 40.6423 288.351 40.6351 288.362 40.6303C288.367 40.6279 288.371 40.6262 288.373 40.6251C288.374 40.6246 288.375 40.6242 288.376 40.6239C288.376 40.6238 288.376 40.6238 288.376 40.6237C288.376 40.6237 288.376 40.6237 288.171 40.1676C287.966 39.7115 287.966 39.7117 287.966 39.7118C287.966 39.7119 287.965 39.7121 287.965 39.7123C287.964 39.7127 287.963 39.7133 287.961 39.714C287.958 39.7155 287.953 39.7176 287.947 39.7203C287.935 39.7258 287.918 39.7338 287.895 39.7444C287.849 39.7657 287.781 39.7971 287.693 39.8389C287.518 39.9224 287.262 40.0469 286.934 40.2125C286.279 40.5437 285.341 41.0393 284.2 41.6996C281.918 43.0199 278.823 45.0005 275.569 47.6438C269.068 52.9241 261.886 60.8854 259.326 71.5493L260.298 71.7827Z" fill="#360627"/>
<path d="M173.91 52.0002L178.21 47.7102C178.398 47.5219 178.504 47.2665 178.504 47.0002C178.504 46.7339 178.398 46.4785 178.21 46.2902C178.022 46.1019 177.766 45.9961 177.5 45.9961C177.234 45.9961 176.978 46.1019 176.79 46.2902L172.5 50.5902L168.21 46.2902C168.022 46.1019 167.766 45.9961 167.5 45.9961C167.234 45.9961 166.978 46.1019 166.79 46.2902C166.602 46.4785 166.496 46.7339 166.496 47.0002C166.496 47.2665 166.602 47.5219 166.79 47.7102L171.09 52.0002L166.79 56.2902C166.696 56.3831 166.622 56.4937 166.571 56.6156C166.52 56.7375 166.494 56.8682 166.494 57.0002C166.494 57.1322 166.52 57.2629 166.571 57.3848C166.622 57.5066 166.696 57.6172 166.79 57.7102C166.883 57.8039 166.994 57.8783 167.115 57.9291C167.237 57.9798 167.368 58.006 167.5 58.006C167.632 58.006 167.763 57.9798 167.885 57.9291C168.006 57.8783 168.117 57.8039 168.21 57.7102L172.5 53.4102L176.79 57.7102C176.883 57.8039 176.994 57.8783 177.115 57.9291C177.237 57.9798 177.368 58.006 177.5 58.006C177.632 58.006 177.763 57.9798 177.885 57.9291C178.006 57.8783 178.117 57.8039 178.21 57.7102C178.304 57.6172 178.378 57.5066 178.429 57.3848C178.48 57.2629 178.506 57.1322 178.506 57.0002C178.506 56.8682 178.48 56.7375 178.429 56.6156C178.378 56.4937 178.304 56.3831 178.21 56.2902L173.91 52.0002Z" fill="#360627"/>
<rect x="153.5" y="32.5" width="39" height="39" rx="19.5" stroke="#360627"/>
<defs>
<radialGradient id="paint0_radial_2397_88804" cx="0" cy="0" r="1" gradientUnits="userSpaceOnUse" gradientTransform="translate(346) rotate(90) scale(345 346)">
<stop offset="0.03125" stop-color="#FAFAFA"/>
<stop offset="0.822917" stop-color="#FAFAFA" stop-opacity="0.9"/>
<stop offset="1" stop-color="#FAFAFA" stop-opacity="0"/>
</radialGradient>
</defs>
</svg>
