<svg width="13" height="14" viewBox="0 0 13 14" fill="none" xmlns="http://www.w3.org/2000/svg">
<path d="M7.699 7.00019L11.999 2.71019C12.1873 2.52188 12.2931 2.26649 12.2931 2.00019C12.2931 1.73388 12.1873 1.47849 11.999 1.29019C11.8107 1.10188 11.5553 0.996094 11.289 0.996094C11.0227 0.996094 10.7673 1.10188 10.579 1.29019L6.289 5.59019L1.999 1.29019C1.8107 1.10188 1.5553 0.996094 1.289 0.996094C1.0227 0.996094 0.767305 1.10188 0.579001 1.29019C0.390698 1.47849 0.28491 1.73388 0.28491 2.00019C0.28491 2.26649 0.390698 2.52188 0.579001 2.71019L4.879 7.00019L0.579001 11.2902C0.485273 11.3831 0.410879 11.4937 0.36011 11.6156C0.309342 11.7375 0.283203 11.8682 0.283203 12.0002C0.283203 12.1322 0.309342 12.2629 0.36011 12.3848C0.410879 12.5066 0.485273 12.6172 0.579001 12.7102C0.671964 12.8039 0.782565 12.8783 0.904425 12.9291C1.02628 12.9798 1.15699 13.006 1.289 13.006C1.42101 13.006 1.55172 12.9798 1.67358 12.9291C1.79544 12.8783 1.90604 12.8039 1.999 12.7102L6.289 8.41019L10.579 12.7102C10.672 12.8039 10.7826 12.8783 10.9044 12.9291C11.0263 12.9798 11.157 13.006 11.289 13.006C11.421 13.006 11.5517 12.9798 11.6736 12.9291C11.7954 12.8783 11.906 12.8039 11.999 12.7102C12.0927 12.6172 12.1671 12.5066 12.2179 12.3848C12.2687 12.2629 12.2948 12.1322 12.2948 12.0002C12.2948 11.8682 12.2687 11.7375 12.2179 11.6156C12.1671 11.4937 12.0927 11.3831 11.999 11.2902L7.699 7.00019Z" fill="#360627"/>
</svg>
