<svg width="19" height="19" viewBox="0 0 19 19" fill="none" xmlns="http://www.w3.org/2000/svg">
<path d="M17.3 11.2904C17.048 11.2119 16.7752 11.2361 16.5411 11.3579C16.3069 11.4797 16.1304 11.689 16.05 11.9404C15.5776 13.3849 14.6566 14.6409 13.421 15.5258C12.1854 16.4107 10.6997 16.8782 9.18 16.8604C7.30035 16.8818 5.48894 16.1569 4.14297 14.8446C2.79701 13.5324 2.02635 11.74 2 9.86041C2.02635 7.98082 2.79701 6.18839 4.14297 4.87617C5.48894 3.56395 7.30035 2.83904 9.18 2.86041C10.8776 2.85631 12.5229 3.44722 13.83 4.53041L11.66 4.17041C11.5299 4.14901 11.3969 4.15353 11.2686 4.18371C11.1403 4.21389 11.0193 4.26914 10.9124 4.34628C10.8055 4.42341 10.715 4.52091 10.6459 4.63317C10.5768 4.74543 10.5307 4.87024 10.51 5.00041C10.4886 5.13046 10.4931 5.26346 10.5233 5.39176C10.5535 5.52006 10.6087 5.64113 10.6859 5.748C10.763 5.85487 10.8605 5.94545 10.9728 6.01451C11.085 6.08357 11.2098 6.12975 11.34 6.15041L15.58 6.85041H15.75C15.866 6.85027 15.981 6.82997 16.09 6.79041C16.1266 6.7765 16.1605 6.75619 16.19 6.73041C16.2617 6.70375 16.3291 6.66669 16.39 6.62041L16.48 6.51041C16.48 6.46041 16.57 6.42041 16.61 6.36041C16.65 6.30041 16.61 6.26041 16.66 6.22041C16.6876 6.16217 16.711 6.10202 16.73 6.04041L17.48 2.04041C17.505 1.90909 17.5038 1.77414 17.4766 1.64326C17.4494 1.51239 17.3967 1.38815 17.3215 1.27765C17.2462 1.16715 17.15 1.07255 17.0382 0.99924C16.9264 0.925933 16.8013 0.875361 16.67 0.85041C16.5387 0.825458 16.4037 0.826617 16.2729 0.85382C16.142 0.881023 16.0177 0.933737 15.9072 1.00895C15.6841 1.16086 15.5304 1.39519 15.48 1.66041L15.21 3.11041C13.536 1.65965 11.3952 0.86084 9.18 0.86041C6.76993 0.839077 4.44984 1.77471 2.7288 3.46199C1.00777 5.14927 0.0263909 7.45039 0 9.86041C0.0263909 12.2704 1.00777 14.5715 2.7288 16.2588C4.44984 17.9461 6.76993 18.8817 9.18 18.8604C11.1331 18.8904 13.0443 18.2925 14.6321 17.1548C16.2199 16.017 17.4005 14.3995 18 12.5404C18.0379 12.4124 18.0498 12.278 18.035 12.1453C18.0202 12.0126 17.9789 11.8842 17.9137 11.7677C17.8485 11.6512 17.7605 11.549 17.6551 11.467C17.5497 11.385 17.429 11.325 17.3 11.2904Z" fill="#979797"/>
</svg>
