<svg width="312" height="132" viewBox="0 0 104 44" fill="none" xmlns="http://www.w3.org/2000/svg">
<ellipse cx="52" cy="42" rx="23.6842" ry="2" fill="black" fill-opacity="0.1"/>
<ellipse cx="52.0003" cy="42" rx="17.76315" ry="1.5" fill="black" fill-opacity="0.1"/>
<ellipse cx="52.0003" cy="42" rx="11.8421" ry="1" fill="black" fill-opacity="0.1"/>
<ellipse cx="51.9999" cy="42" rx="8.2895" ry="0.75" fill="black" fill-opacity="0.1"/>
<ellipse cx="51.9999" cy="42" rx="5.52632" ry="0.5" fill="black" fill-opacity="0.1"/>
<rect y="32" width="32" height="104" rx="8" transform="rotate(-90 0 32)" fill="#F68270"/>
<mask id="path-5-inside-1" fill="white">
<path fill-rule="evenodd" clip-rule="evenodd" d="M0 26C0 30.4183 3.58172 34 8 34H44.0031C44.0748 34.0759 44.1479 34.151 44.2222 34.2254L51.2897 41.2929C51.6802 41.6834 52.3134 41.6834 52.7039 41.2929L59.7821 34.2146C59.8529 34.1438 59.9226 34.0723 59.9911 34H96C100.418 34 104 30.4183 104 26V10C104 5.58172 100.418 2 96 2L8 2C3.58172 2 0 5.58173 0 10V26Z"/>
</mask>
<path fill-rule="evenodd" clip-rule="evenodd" d="M0 26C0 30.4183 3.58172 34 8 34H44.0031C44.0748 34.0759 44.1479 34.151 44.2222 34.2254L51.2897 41.2929C51.6802 41.6834 52.3134 41.6834 52.7039 41.2929L59.7821 34.2146C59.8529 34.1438 59.9226 34.0723 59.9911 34H96C100.418 34 104 30.4183 104 26V10C104 5.58172 100.418 2 96 2L8 2C3.58172 2 0 5.58173 0 10V26Z" fill="white"/>
<path d="M44.0031 34L44.7297 33.313L44.4338 33H44.0031V34ZM44.2222 34.2254L44.9293 33.5182L44.2222 34.2254ZM51.2897 41.2929L50.5826 42L51.2897 41.2929ZM59.9911 34V33H59.5611L59.2653 33.312L59.9911 34ZM96 2V1V2ZM8 2V3V2ZM8 33C4.13401 33 1 29.866 1 26H-1C-1 30.9706 3.02944 35 8 35V33ZM44.0031 33H8V35H44.0031V33ZM44.9293 33.5182C44.8616 33.4505 44.795 33.3821 44.7297 33.313L43.2764 34.687C43.3546 34.7697 43.4341 34.8515 43.5151 34.9325L44.9293 33.5182ZM51.9968 40.5857L44.9293 33.5182L43.5151 34.9325L50.5826 42L51.9968 40.5857ZM51.9968 40.5857L50.5826 42C51.3636 42.781 52.6299 42.781 53.411 42L51.9968 40.5857ZM59.075 33.5075L51.9968 40.5857L53.411 42L60.4892 34.9217L59.075 33.5075ZM59.2653 33.312C59.203 33.3778 59.1395 33.443 59.075 33.5075L60.4892 34.9217C60.5663 34.8446 60.6422 34.7667 60.7168 34.688L59.2653 33.312ZM96 33H59.9911V35H96V33ZM103 26C103 29.866 99.866 33 96 33V35C100.971 35 105 30.9706 105 26H103ZM103 10V26H105V10H103ZM96 3C99.866 3 103 6.13401 103 10H105C105 5.02944 100.971 1 96 1V3ZM8 3L96 3V1L8 1L8 3ZM1 10C1 6.13401 4.13401 3 8 3L8 1C3.02944 1 -1 5.02944 -1 10H1ZM1 26V10H-1V26H1Z" fill="#F68270" mask="url(#path-5-inside-1)"/>
</svg>
